<svg xmlns="http://www.w3.org/2000/svg" viewBox="0 0 24 24">
  <g>
    <path d="M17.497 3.47c-.478-.276-1.09-.113-1.366.366-.276.478-.112 1.09.366 1.366C19.274 6.808 21 9.796 21 13c0 4.963-4.037 9-9 9s-9-4.037-9-9c0-3.203 1.725-6.19 4.501-7.797.478-.276.642-.888.364-1.366-.275-.479-.887-.644-1.366-.364C3.107 5.435 1 9.086 1 13c0 6.065 4.935 11 11 11s11-4.935 11-11c0-3.916-2.108-7.568-5.503-9.53z"/>
    <path d="M12 9c.553 0 1-.447 1-1V1c0-.553-.447-1-1-1s-1 .447-1 1v7c0 .553.447 1 1 1z"/>
  </g>
</svg>
