<svg xmlns="http://www.w3.org/2000/svg" viewBox="0 0 24 24">
  <g>
    <path d="M17.848 18.931l1.459 1.367c1.688-1.802 1.856-2.048 2.93-4.262l-1.799-.873c-.983 2.025-1.05 2.123-2.59 3.768zM11.226 21.022l.049 1.999c2.615-.064 3.032-.144 5.458-1.028l-.685-1.879c-2.211.805-2.426.849-4.822.908zM4.881 17.576l-1.429 1.399c1.837 1.875 2.199 2.143 4.556 3.32l.895-1.789c-2.14-1.068-2.343-1.214-4.022-2.93zM3 11H1c0 2.523.054 2.863.81 5.25l1.906-.604C3.024 13.461 3 13.301 3 11z"/>
    <path d="M6.57 4.833C8.127 3.65 10.011 3 12 3c4.963 0 9 4.037 9 9 0 .207-.017.409-.031.612l1.984.31c.026-.305.047-.611.047-.922 0-6.065-4.935-11-11-11-2.545 0-4.957.862-6.907 2.442L2.333.854l-.646 7.584 7.604-1.062L6.57 4.833z"/>
  </g>
</svg>
